<?xml version="1.0" encoding="UTF-8"?>
<svg xmlns="http://www.w3.org/2000/svg" xmlns:xlink="http://www.w3.org/1999/xlink" width="500px" height="500px" viewBox="0 0 500 500" version="1.1">
<g id="surface1">
<rect x="0" y="0" width="500" height="500" style="fill:rgb(100%,100%,100%);fill-opacity:1;stroke:none;"/>
<path style=" stroke:none;fill-rule:nonzero;fill:rgb(96.078431%,97.254902%,100%);fill-opacity:1;" d="M 188.621094 379.789062 C 155.304688 399.148438 77.804688 406.0625 68.679688 344.59375 C 56.820312 264.722656 128.175781 265.027344 119.394531 201.332031 C 110.609375 137.636719 174.988281 58.414062 236.804688 112.644531 C 298.621094 166.871094 307.242188 158.40625 345.042969 146.808594 C 382.84375 135.210938 434.050781 186.539062 400.738281 239.355469 C 367.425781 292.167969 420.691406 376.136719 334.785156 405.265625 C 234.089844 439.414062 253.292969 342.210938 188.621094 379.789062 Z M 188.621094 379.789062 "/>
<path style=" stroke:none;fill-rule:nonzero;fill:rgb(88.235294%,92.54902%,98.039216%);fill-opacity:1;" d="M 429.609375 275.277344 L 426.449219 274.707031 C 424.871094 274.421875 423.621094 273.15625 423.441406 271.566406 C 423.199219 269.453125 422.730469 267.394531 422.054688 265.417969 C 421.527344 263.875 422.125 262.171875 423.464844 261.242188 L 426.347656 259.238281 C 428.027344 258.070312 428.441406 255.765625 427.277344 254.089844 L 424.769531 250.480469 C 423.605469 248.804688 421.300781 248.386719 419.621094 249.554688 L 416.566406 251.675781 C 415.238281 252.597656 413.441406 252.605469 412.160156 251.613281 C 410.410156 250.261719 408.496094 249.101562 406.441406 248.164062 C 404.929688 247.472656 404.113281 245.8125 404.410156 244.175781 L 404.910156 241.382812 C 405.273438 239.371094 403.9375 237.449219 401.925781 237.085938 L 397.605469 236.308594 C 395.59375 235.945312 393.667969 237.28125 393.308594 239.292969 L 392.660156 242.890625 C 392.375 244.460938 391.109375 245.636719 389.535156 245.894531 C 387.738281 246.1875 385.988281 246.648438 384.304688 247.257812 C 382.816406 247.792969 381.15625 247.398438 380.140625 246.1875 L 376.976562 242.429688 C 375.660156 240.867188 373.328125 240.667969 371.765625 241.984375 L 368.402344 244.8125 C 366.839844 246.128906 366.640625 248.460938 367.957031 250.023438 L 370.414062 252.949219 C 371.507812 254.242188 371.589844 256.125 370.585938 257.488281 C 369.640625 258.769531 368.792969 260.136719 368.058594 261.578125 C 367.332031 263.011719 365.71875 263.761719 364.140625 263.476562 L 360.980469 262.90625 C 358.96875 262.542969 357.046875 263.878906 356.683594 265.890625 L 355.902344 270.214844 C 355.542969 272.222656 356.878906 274.148438 358.890625 274.511719 L 362.03125 275.074219 C 363.617188 275.363281 364.878906 276.632812 365.0625 278.234375 C 365.199219 279.445312 365.414062 280.636719 365.699219 281.804688 C 366.105469 283.472656 365.277344 285.195312 363.734375 285.953125 L 361.40625 287.101562 C 359.574219 288.003906 358.820312 290.222656 359.722656 292.054688 L 361.664062 295.996094 C 362.566406 297.828125 364.785156 298.582031 366.617188 297.679688 L 370.21875 295.90625 C 371.613281 295.21875 373.265625 295.5 374.410156 296.554688 C 376.015625 298.023438 377.789062 299.324219 379.707031 300.421875 C 381.09375 301.210938 381.871094 302.753906 381.585938 304.324219 L 380.9375 307.925781 C 380.574219 309.933594 381.910156 311.859375 383.921875 312.222656 L 388.246094 313 C 390.257812 313.363281 392.179688 312.027344 392.542969 310.015625 L 393.046875 307.222656 C 393.339844 305.585938 394.683594 304.3125 396.34375 304.195312 C 398.582031 304.035156 400.773438 303.617188 402.871094 302.96875 C 404.414062 302.492188 406.089844 303.121094 407.007812 304.449219 L 409.167969 307.554688 C 410.332031 309.234375 412.636719 309.648438 414.316406 308.484375 L 417.925781 305.976562 C 419.601562 304.8125 420.019531 302.507812 418.851562 300.828125 L 416.828125 297.917969 C 415.898438 296.578125 415.9375 294.769531 416.972656 293.511719 C 418.304688 291.886719 419.472656 290.109375 420.441406 288.203125 C 421.167969 286.773438 422.78125 286.023438 424.359375 286.308594 L 427.519531 286.878906 C 429.53125 287.242188 431.453125 285.90625 431.816406 283.894531 L 432.597656 279.570312 C 432.957031 277.5625 431.621094 275.640625 429.609375 275.277344 Z M 410.074219 277.507812 C 408.5 286.25 400.136719 292.058594 391.398438 290.480469 C 382.65625 288.90625 376.847656 280.542969 378.421875 271.800781 C 380 263.0625 388.363281 257.253906 397.101562 258.828125 C 405.84375 260.402344 411.652344 268.765625 410.074219 277.507812 Z M 410.074219 277.507812 "/>
<path style=" stroke:none;fill-rule:nonzero;fill:rgb(88.235294%,92.54902%,98.039216%);fill-opacity:1;" d="M 181.113281 146.40625 L 177.25 146.402344 C 175.320312 146.398438 173.570312 145.164062 173.019531 143.316406 C 172.285156 140.867188 171.292969 138.523438 170.074219 136.328125 C 169.121094 134.613281 169.46875 132.46875 170.855469 131.082031 L 173.851562 128.097656 C 175.59375 126.359375 175.597656 123.539062 173.859375 121.800781 L 170.125 118.054688 C 168.390625 116.316406 165.570312 116.3125 163.828125 118.046875 L 160.660156 121.210938 C 159.277344 122.585938 157.15625 122.972656 155.425781 122.070312 C 153.066406 120.84375 150.550781 119.871094 147.917969 119.195312 C 145.980469 118.699219 144.664062 116.902344 144.664062 114.902344 L 144.671875 111.488281 C 144.675781 109.027344 142.683594 107.03125 140.222656 107.027344 L 134.9375 107.023438 C 132.476562 107.019531 130.480469 109.007812 130.476562 111.46875 L 130.472656 115.867188 C 130.46875 117.789062 129.21875 119.453125 127.40625 120.09375 C 125.34375 120.820312 123.367188 121.734375 121.496094 122.816406 C 119.851562 123.765625 117.800781 123.648438 116.339844 122.433594 L 111.792969 118.648438 C 109.902344 117.078125 107.097656 117.335938 105.523438 119.222656 L 102.140625 123.285156 C 100.566406 125.175781 100.824219 127.984375 102.714844 129.558594 L 106.25 132.5 C 107.816406 133.804688 108.3125 136.015625 107.410156 137.84375 C 106.5625 139.5625 105.851562 141.363281 105.285156 143.226562 C 104.730469 145.074219 102.976562 146.304688 101.046875 146.300781 L 97.179688 146.296875 C 94.722656 146.292969 92.722656 148.285156 92.722656 150.742188 L 92.714844 156.03125 C 92.710938 158.488281 94.703125 160.484375 97.160156 160.488281 L 101.003906 160.496094 C 102.945312 160.496094 104.707031 161.734375 105.265625 163.59375 C 105.683594 164.996094 106.191406 166.363281 106.777344 167.6875 C 107.613281 169.578125 106.992188 171.796875 105.328125 173.019531 L 102.8125 174.875 C 100.832031 176.332031 100.40625 179.121094 101.867188 181.101562 L 105.003906 185.355469 C 106.460938 187.335938 109.25 187.761719 111.230469 186.300781 L 115.117188 183.4375 C 116.625 182.324219 118.644531 182.3125 120.222656 183.316406 C 122.433594 184.71875 124.8125 185.882812 127.320312 186.773438 C 129.128906 187.414062 130.375 189.078125 130.371094 191 L 130.367188 195.402344 C 130.363281 197.863281 132.351562 199.859375 134.8125 199.863281 L 140.101562 199.871094 C 142.558594 199.871094 144.554688 197.882812 144.558594 195.421875 L 144.5625 192.007812 C 144.566406 190.007812 145.890625 188.214844 147.828125 187.722656 C 150.449219 187.058594 152.953125 186.101562 155.304688 184.886719 C 157.03125 183.996094 159.148438 184.386719 160.519531 185.761719 L 163.734375 188.984375 C 165.472656 190.726562 168.292969 190.730469 170.03125 188.992188 L 173.777344 185.261719 C 175.515625 183.523438 175.519531 180.703125 173.785156 178.964844 L 170.769531 175.941406 C 169.386719 174.554688 169.046875 172.402344 170.003906 170.691406 C 171.242188 168.484375 172.246094 166.132812 172.992188 163.664062 C 173.550781 161.816406 175.304688 160.589844 177.234375 160.59375 L 181.097656 160.597656 C 183.558594 160.601562 185.554688 158.609375 185.558594 156.152344 L 185.566406 150.863281 C 185.566406 148.40625 183.574219 146.410156 181.113281 146.40625 Z M 158.441406 153.191406 C 158.429688 163.878906 149.75 172.535156 139.0625 172.519531 C 128.371094 172.507812 119.71875 163.828125 119.730469 153.136719 C 119.746094 142.449219 128.421875 133.792969 139.113281 133.808594 C 149.804688 133.820312 158.457031 142.5 158.441406 153.191406 Z M 158.441406 153.191406 "/>
<path style=" stroke:none;fill-rule:nonzero;fill:rgb(88.235294%,92.54902%,98.039216%);fill-opacity:1;" d="M 246.179688 105.714844 L 244.03125 105.980469 C 242.960938 106.113281 241.90625 105.550781 241.472656 104.5625 C 240.894531 103.253906 240.179688 102.023438 239.351562 100.890625 C 238.703125 100.003906 238.746094 98.789062 239.421875 97.925781 L 240.875 96.0625 C 241.71875 94.976562 241.523438 93.410156 240.441406 92.566406 L 238.109375 90.75 C 237.023438 89.90625 235.460938 90.097656 234.613281 91.183594 L 233.074219 93.15625 C 232.40625 94.019531 231.253906 94.378906 230.230469 94 C 228.835938 93.484375 227.375 93.117188 225.867188 92.929688 C 224.757812 92.789062 223.902344 91.882812 223.761719 90.773438 L 223.527344 88.878906 C 223.359375 87.511719 222.113281 86.542969 220.75 86.714844 L 217.816406 87.078125 C 216.453125 87.246094 215.484375 88.488281 215.652344 89.855469 L 215.957031 92.296875 C 216.089844 93.359375 215.511719 94.371094 214.550781 94.851562 C 213.453125 95.398438 212.421875 96.042969 211.460938 96.773438 C 210.613281 97.414062 209.46875 97.492188 208.570312 96.921875 L 205.785156 95.136719 C 204.628906 94.398438 203.089844 94.734375 202.347656 95.894531 L 200.753906 98.382812 C 200.011719 99.539062 200.351562 101.082031 201.507812 101.820312 L 203.675781 103.207031 C 204.636719 103.824219 205.066406 105.015625 204.691406 106.09375 C 204.339844 107.105469 204.070312 108.152344 203.886719 109.226562 C 203.707031 110.289062 202.820312 111.097656 201.75 111.230469 L 199.605469 111.496094 C 198.238281 111.664062 197.269531 112.90625 197.441406 114.273438 L 197.804688 117.207031 C 197.972656 118.570312 199.21875 119.539062 200.582031 119.371094 L 202.710938 119.105469 C 203.789062 118.972656 204.851562 119.535156 205.292969 120.53125 C 205.625 121.277344 206 122.003906 206.417969 122.695312 C 207.011719 123.6875 206.824219 124.960938 205.984375 125.753906 L 204.71875 126.960938 C 203.71875 127.90625 203.679688 129.480469 204.625 130.480469 L 206.660156 132.621094 C 207.609375 133.617188 209.183594 133.660156 210.183594 132.714844 L 212.140625 130.855469 C 212.898438 130.132812 214.019531 129.984375 214.964844 130.429688 C 216.289062 131.054688 217.6875 131.535156 219.140625 131.855469 C 220.191406 132.085938 220.996094 132.925781 221.128906 133.988281 L 221.433594 136.433594 C 221.601562 137.796875 222.847656 138.765625 224.210938 138.597656 L 227.144531 138.234375 C 228.507812 138.0625 229.476562 136.820312 229.308594 135.457031 L 229.074219 133.5625 C 228.933594 132.453125 229.546875 131.363281 230.585938 130.957031 C 231.992188 130.40625 233.316406 129.699219 234.535156 128.863281 C 235.433594 128.246094 236.632812 128.316406 237.492188 128.984375 L 239.5 130.550781 C 240.585938 131.394531 242.148438 131.203125 242.992188 130.117188 L 244.8125 127.785156 C 245.65625 126.699219 245.460938 125.136719 244.378906 124.289062 L 242.496094 122.824219 C 241.628906 122.148438 241.289062 120.980469 241.703125 119.964844 C 242.234375 118.652344 242.632812 117.277344 242.871094 115.859375 C 243.054688 114.796875 243.941406 113.992188 245.011719 113.859375 L 247.15625 113.59375 C 248.519531 113.425781 249.488281 112.179688 249.320312 110.816406 L 248.957031 107.882812 C 248.785156 106.515625 247.542969 105.546875 246.179688 105.714844 Z M 234.070312 111.054688 C 234.808594 116.988281 230.59375 122.394531 224.664062 123.128906 C 218.730469 123.863281 213.324219 119.652344 212.589844 113.722656 C 211.855469 107.789062 216.066406 102.382812 221.996094 101.648438 C 227.929688 100.910156 233.335938 105.121094 234.070312 111.054688 Z M 234.070312 111.054688 "/>
<path style=" stroke:none;fill-rule:nonzero;fill:rgb(88.235294%,92.54902%,98.039216%);fill-opacity:1;" d="M 284.164062 381.605469 C 284.621094 379.160156 284.203125 376.761719 283.613281 374.859375 C 283 372.898438 280.628906 372.089844 278.9375 373.25 C 276.519531 374.910156 273.46875 376.464844 273.230469 373.925781 C 272.835938 369.675781 281.6875 370.847656 281.316406 364.617188 C 281.128906 361.484375 279.726562 358.386719 278.722656 356.527344 C 278.128906 355.433594 276.945312 354.792969 275.703125 354.914062 C 273.457031 355.136719 269.761719 355.746094 267.144531 357.410156 C 261.878906 360.757812 266.460938 368.269531 262.761719 370.394531 C 260.671875 371.597656 260.347656 367.714844 260.460938 364.113281 C 260.539062 361.617188 257.769531 360.035156 255.679688 361.40625 C 254.929688 361.898438 254.121094 362.476562 253.273438 363.144531 C 248.949219 366.558594 255.792969 374.84375 253.230469 377.90625 C 251.734375 379.699219 249.878906 375.632812 248.59375 371.953125 C 247.695312 369.367188 244.117188 369.074219 242.894531 371.523438 C 242.308594 372.695312 241.835938 374.121094 241.632812 375.832031 C 240.84375 382.339844 248.582031 384.234375 244.785156 385.757812 C 243.679688 386.199219 242.628906 385.816406 241.695312 385.050781 C 239.726562 383.4375 236.769531 384.972656 236.726562 387.519531 C 236.589844 396.097656 238.398438 408.316406 245.261719 412.671875 C 246.214844 413.277344 257.40625 412.203125 258.296875 412.386719 C 266.164062 413.988281 272.121094 410.296875 275.9375 406.460938 C 277.828125 404.558594 276.589844 401.3125 273.90625 401.164062 C 271.011719 401.003906 268.117188 400.355469 267.664062 398.449219 C 266.71875 394.472656 275.820312 400.371094 280.6875 395.980469 C 282.273438 394.546875 283.269531 393.027344 283.886719 391.636719 C 284.894531 389.355469 282.945312 386.890625 280.488281 387.320312 C 276.496094 388.015625 271.285156 388.496094 271.929688 386.082031 C 272.957031 382.21875 283.160156 387.027344 284.164062 381.605469 Z M 284.164062 381.605469 "/>
<path style=" stroke:none;fill-rule:nonzero;fill:rgb(88.235294%,92.54902%,98.039216%);fill-opacity:1;" d="M 250.976562 405.636719 C 250.976562 405.636719 257.5625 385.480469 274.933594 360.453125 "/>
<path style=" stroke:none;fill-rule:nonzero;fill:rgb(88.235294%,92.54902%,98.039216%);fill-opacity:1;" d="M 223.746094 371.253906 C 222.257812 370.515625 220.660156 370.230469 219.234375 370.171875 C 217.109375 370.082031 215.496094 372.101562 216.113281 374.136719 C 216.761719 376.28125 217.042969 378.558594 215.152344 378.203125 C 211.6875 377.554688 214.628906 370.78125 209.589844 369.660156 C 207.25 369.140625 204.699219 369.449219 202.980469 369.800781 C 201.71875 370.054688 200.738281 371.050781 200.527344 372.320312 C 200.222656 374.179688 199.960938 377.003906 200.640625 379.296875 C 202.101562 384.242188 209.117188 382.304688 209.96875 385.726562 C 210.394531 387.449219 207.941406 387.148438 205.398438 386.421875 C 202.949219 385.722656 200.726562 388.054688 201.59375 390.453125 C 201.730469 390.828125 201.878906 391.222656 202.046875 391.625 C 203.78125 395.84375 211.921875 392.28125 213.773438 395.015625 C 214.710938 396.390625 212.128906 396.992188 209.335938 397.25 C 206.371094 397.523438 205.390625 401.414062 207.929688 402.972656 C 208.398438 403.257812 208.917969 403.527344 209.488281 403.769531 C 214.484375 405.871094 217.753906 400.152344 218.097656 403.511719 C 218.183594 404.34375 217.808594 405.007812 217.191406 405.539062 C 215.390625 407.082031 216.097656 410.03125 218.351562 410.769531 C 224.273438 412.699219 232.484375 414.21875 238.511719 412.671875 C 241.996094 411.773438 244.382812 409.574219 245.582031 408.058594 C 249.851562 402.664062 245.789062 391.789062 242.09375 384.839844 C 240.882812 382.558594 237.535156 382.648438 236.523438 385.019531 C 235.761719 386.808594 234.726562 388.265625 233.390625 388.207031 C 230.015625 388.054688 236.773438 382.152344 234.386719 377.285156 C 234.023438 376.550781 233.636719 375.914062 233.238281 375.359375 C 231.667969 373.183594 228.234375 374.023438 227.71875 376.65625 C 227.117188 379.71875 226.09375 382.941406 224.523438 382.003906 C 221.6875 380.308594 227.828125 373.285156 223.746094 371.253906 Z M 223.746094 371.253906 "/>
<path style=" stroke:none;fill-rule:nonzero;fill:rgb(88.235294%,92.54902%,98.039216%);fill-opacity:1;" d="M 235.316406 403.109375 C 235.316406 403.109375 220.785156 393.292969 204.828125 373.789062 "/>
<path style=" stroke:none;fill-rule:nonzero;fill:rgb(88.235294%,92.54902%,98.039216%);fill-opacity:1;" d="M 408.34375 385.625 C 408.675781 383.84375 408.46875 382.085938 408.085938 380.59375 C 407.554688 378.511719 405.148438 377.597656 403.34375 378.765625 C 401.367188 380.050781 399.121094 381.027344 398.933594 379.015625 C 398.59375 375.359375 406.210938 376.363281 405.890625 371.003906 C 405.738281 368.476562 404.671875 365.972656 403.824219 364.355469 C 403.226562 363.214844 402.007812 362.546875 400.730469 362.6875 C 398.777344 362.90625 395.824219 363.449219 393.695312 364.800781 C 389.160156 367.679688 393.109375 374.144531 389.925781 375.972656 C 388.273438 376.921875 387.902344 374.199219 387.925781 371.351562 C 387.945312 368.804688 385.085938 367.328125 383.003906 368.800781 C 382.601562 369.085938 382.183594 369.398438 381.757812 369.734375 C 378.035156 372.675781 383.925781 379.800781 381.722656 382.4375 C 380.5625 383.824219 379.152344 381.140625 378.078125 378.28125 C 377.066406 375.589844 373.175781 375.585938 372.261719 378.3125 C 372.023438 379.011719 371.84375 379.792969 371.738281 380.652344 C 371.0625 386.253906 377.71875 387.886719 374.453125 389.195312 C 373.667969 389.511719 372.914062 389.339844 372.226562 388.902344 C 370.1875 387.605469 367.507812 389.136719 367.511719 391.550781 C 367.523438 398.871094 369.175781 408.75 374.863281 412.359375 C 375.683594 412.878906 385.3125 411.953125 386.078125 412.109375 C 392.363281 413.390625 397.230469 410.746094 400.523438 407.722656 C 402.488281 405.917969 401.296875 402.652344 398.640625 402.390625 C 396.46875 402.171875 394.484375 401.566406 394.140625 400.117188 C 393.328125 396.695312 401.164062 401.773438 405.351562 397.992188 C 406.3125 397.121094 407.023438 396.21875 407.542969 395.339844 C 408.882812 393.078125 407.007812 390.257812 404.414062 390.667969 C 401.117188 391.1875 397.300781 391.402344 397.8125 389.476562 C 398.695312 386.152344 407.476562 390.289062 408.34375 385.625 Z M 408.34375 385.625 "/>
<path style=" stroke:none;fill-rule:nonzero;fill:rgb(88.235294%,92.54902%,98.039216%);fill-opacity:1;" d="M 379.777344 406.304688 C 379.777344 406.304688 385.445312 388.960938 400.398438 367.421875 "/>
<path style=" stroke:none;fill-rule:nonzero;fill:rgb(19.215686%,34.117647%,50.980392%);fill-opacity:1;" d="M 383.757812 359.949219 L 98.582031 359.949219 C 91.195312 359.949219 85.203125 353.957031 85.203125 346.566406 L 85.203125 184.152344 C 85.203125 176.761719 91.191406 170.773438 98.582031 170.773438 L 383.757812 170.773438 C 391.148438 170.773438 397.140625 176.761719 397.140625 184.152344 L 397.140625 346.566406 C 397.140625 353.957031 391.148438 359.949219 383.757812 359.949219 Z M 383.757812 359.949219 "/>
<path style=" stroke:none;fill-rule:nonzero;fill:rgb(100%,100%,100%);fill-opacity:1;" d="M 377.785156 348.484375 L 104.554688 348.484375 C 100.28125 348.484375 96.816406 345.019531 96.816406 340.746094 L 96.816406 189.976562 C 96.816406 185.699219 100.28125 182.234375 104.554688 182.234375 L 377.785156 182.234375 C 382.058594 182.234375 385.523438 185.699219 385.523438 189.976562 L 385.523438 340.746094 C 385.523438 345.019531 382.058594 348.484375 377.785156 348.484375 Z M 377.785156 348.484375 "/>
<path style="fill:none;stroke-width:1;stroke-linecap:round;stroke-linejoin:miter;stroke:rgb(88.235294%,92.54902%,98.039216%);stroke-opacity:1;stroke-miterlimit:10;" d="M 107.738281 217.042969 L 375.324219 217.042969 "/>
<path style="fill:none;stroke-width:1;stroke-linecap:round;stroke-linejoin:miter;stroke:rgb(88.235294%,92.54902%,98.039216%);stroke-opacity:1;stroke-miterlimit:10;" d="M 241.082031 189.105469 L 241.082031 339.925781 "/>
<path style="fill:none;stroke-width:1;stroke-linecap:round;stroke-linejoin:miter;stroke:rgb(88.235294%,92.54902%,98.039216%);stroke-opacity:1;stroke-miterlimit:10;" d="M 311.253906 189.105469 L 311.253906 339.925781 "/>
<path style=" stroke:none;fill-rule:nonzero;fill:rgb(88.235294%,92.54902%,98.039216%);fill-opacity:1;" d="M 155.703125 204.75 L 114.601562 204.75 C 113.007812 204.75 111.71875 203.457031 111.71875 201.863281 L 111.71875 199.925781 C 111.71875 198.332031 113.007812 197.039062 114.601562 197.039062 L 155.703125 197.039062 C 157.296875 197.039062 158.589844 198.332031 158.589844 199.925781 L 158.589844 201.863281 C 158.589844 203.457031 157.300781 204.75 155.703125 204.75 Z M 155.703125 204.75 "/>
<path style=" stroke:none;fill-rule:nonzero;fill:rgb(88.235294%,92.54902%,98.039216%);fill-opacity:1;" d="M 225.347656 204.75 L 184.246094 204.75 C 182.652344 204.75 181.359375 203.457031 181.359375 201.863281 L 181.359375 199.925781 C 181.359375 198.332031 182.652344 197.039062 184.246094 197.039062 L 225.347656 197.039062 C 226.941406 197.039062 228.234375 198.332031 228.234375 199.925781 L 228.234375 201.863281 C 228.234375 203.457031 226.941406 204.75 225.347656 204.75 Z M 225.347656 204.75 "/>
<path style=" stroke:none;fill-rule:nonzero;fill:rgb(88.235294%,92.54902%,98.039216%);fill-opacity:1;" d="M 296.660156 204.75 L 255.558594 204.75 C 253.964844 204.75 252.671875 203.457031 252.671875 201.863281 L 252.671875 199.925781 C 252.671875 198.332031 253.964844 197.039062 255.558594 197.039062 L 296.660156 197.039062 C 298.253906 197.039062 299.546875 198.332031 299.546875 199.925781 L 299.546875 201.863281 C 299.546875 203.457031 298.253906 204.75 296.660156 204.75 Z M 296.660156 204.75 "/>
<path style=" stroke:none;fill-rule:nonzero;fill:rgb(88.235294%,92.54902%,98.039216%);fill-opacity:1;" d="M 365.929688 204.75 L 324.824219 204.75 C 323.234375 204.75 321.941406 203.457031 321.941406 201.863281 L 321.941406 199.925781 C 321.941406 198.332031 323.234375 197.039062 324.824219 197.039062 L 365.929688 197.039062 C 367.523438 197.039062 368.8125 198.332031 368.8125 199.925781 L 368.8125 201.863281 C 368.816406 203.457031 367.523438 204.75 365.929688 204.75 Z M 365.929688 204.75 "/>
<path style=" stroke:none;fill-rule:nonzero;fill:rgb(88.627451%,83.921569%,100%);fill-opacity:1;" d="M 150.464844 256.71875 L 127.8125 256.71875 C 126.503906 256.71875 125.445312 255.660156 125.445312 254.351562 L 125.445312 231.703125 C 125.445312 230.394531 126.503906 229.335938 127.8125 229.335938 L 150.464844 229.335938 C 151.769531 229.335938 152.828125 230.394531 152.828125 231.703125 L 152.828125 254.351562 C 152.828125 255.660156 151.769531 256.71875 150.464844 256.71875 Z M 150.464844 256.71875 "/>
<path style=" stroke:none;fill-rule:nonzero;fill:rgb(88.627451%,83.921569%,100%);fill-opacity:1;" d="M 143.398438 297.058594 L 119.570312 297.058594 C 118.261719 297.058594 117.203125 295.996094 117.203125 294.691406 L 117.203125 270.863281 C 117.203125 269.554688 118.261719 268.496094 119.570312 268.496094 L 143.398438 268.496094 C 144.703125 268.496094 145.761719 269.554688 145.761719 270.863281 L 145.761719 294.691406 C 145.761719 295.996094 144.703125 297.058594 143.398438 297.058594 Z M 143.398438 297.058594 "/>
<path style=" stroke:none;fill-rule:nonzero;fill:rgb(48.627451%,22.745098%,92.941176%);fill-opacity:1;" d="M 149.804688 333.289062 L 127.660156 336.371094 C 126.367188 336.550781 125.171875 335.648438 124.992188 334.351562 L 121.910156 312.210938 C 121.730469 310.914062 122.632812 309.722656 123.929688 309.539062 L 146.070312 306.460938 C 147.363281 306.28125 148.558594 307.183594 148.738281 308.476562 L 151.820312 330.621094 C 152 331.914062 151.097656 333.109375 149.804688 333.289062 Z M 149.804688 333.289062 "/>
<path style=" stroke:none;fill-rule:nonzero;fill:rgb(88.627451%,83.921569%,100%);fill-opacity:1;" d="M 217.882812 334.117188 L 189.734375 331.945312 C 188.433594 331.84375 187.457031 330.707031 187.558594 329.402344 L 189.730469 301.257812 C 189.832031 299.953125 190.96875 298.980469 192.273438 299.078125 L 220.417969 301.253906 C 221.722656 301.355469 222.695312 302.492188 222.59375 303.792969 L 220.421875 331.941406 C 220.320312 333.242188 219.183594 334.21875 217.882812 334.117188 Z M 217.882812 334.117188 "/>
<path style=" stroke:none;fill-rule:nonzero;fill:rgb(48.627451%,22.745098%,92.941176%);fill-opacity:1;" d="M 268.699219 256.261719 L 298.46875 258.5625 C 299.769531 258.660156 300.742188 259.800781 300.644531 261.101562 L 298.347656 290.871094 C 298.246094 292.171875 297.109375 293.148438 295.804688 293.046875 L 266.039062 290.75 C 264.734375 290.648438 263.761719 289.511719 263.859375 288.207031 L 266.160156 258.441406 C 266.257812 257.136719 267.398438 256.164062 268.699219 256.261719 Z M 268.699219 256.261719 "/>
<path style=" stroke:none;fill-rule:nonzero;fill:rgb(88.627451%,83.921569%,100%);fill-opacity:1;" d="M 292.984375 327.257812 L 269.164062 330.570312 C 267.871094 330.75 266.675781 329.847656 266.496094 328.554688 L 263.695312 308.433594 C 263.515625 307.140625 264.417969 305.945312 265.714844 305.765625 L 289.535156 302.449219 C 290.828125 302.269531 292.023438 303.171875 292.203125 304.46875 L 295.003906 324.585938 C 295.183594 325.882812 294.28125 327.074219 292.984375 327.257812 Z M 292.984375 327.257812 "/>
<path style=" stroke:none;fill-rule:nonzero;fill:rgb(88.627451%,83.921569%,100%);fill-opacity:1;" d="M 215.351562 293.769531 L 194.242188 293.769531 C 192.933594 293.769531 191.875 292.710938 191.875 291.40625 L 191.875 270.292969 C 191.875 268.984375 192.933594 267.925781 194.242188 267.925781 L 215.351562 267.925781 C 216.660156 267.925781 217.71875 268.984375 217.71875 270.292969 L 217.71875 291.40625 C 217.71875 292.710938 216.660156 293.769531 215.351562 293.769531 Z M 215.351562 293.769531 "/>
<path style=" stroke:none;fill-rule:nonzero;fill:rgb(88.627451%,83.921569%,100%);fill-opacity:1;" d="M 342.519531 252.5625 L 324.308594 252.5625 C 323 252.5625 321.941406 251.503906 321.941406 250.195312 L 321.941406 231.984375 C 321.941406 230.675781 323 229.617188 324.308594 229.617188 L 342.519531 229.617188 C 343.824219 229.617188 344.886719 230.675781 344.886719 231.984375 L 344.886719 250.195312 C 344.886719 251.503906 343.824219 252.5625 342.519531 252.5625 Z M 342.519531 252.5625 "/>
<path style=" stroke:none;fill-rule:nonzero;fill:rgb(88.627451%,83.921569%,100%);fill-opacity:1;" d="M 377.128906 258.03125 L 355.9375 260.980469 C 354.644531 261.160156 353.449219 260.257812 353.269531 258.960938 L 350.320312 237.773438 C 350.140625 236.480469 351.042969 235.285156 352.339844 235.105469 L 373.527344 232.15625 C 374.820312 231.976562 376.015625 232.878906 376.195312 234.175781 L 379.144531 255.363281 C 379.324219 256.65625 378.421875 257.851562 377.128906 258.03125 Z M 377.128906 258.03125 "/>
<path style=" stroke:none;fill-rule:nonzero;fill:rgb(88.627451%,83.921569%,100%);fill-opacity:1;" d="M 367.355469 301.800781 L 338.269531 305.847656 C 336.972656 306.027344 335.777344 305.125 335.597656 303.832031 L 331.554688 274.742188 C 331.371094 273.449219 332.277344 272.253906 333.570312 272.074219 L 362.660156 268.027344 C 363.953125 267.847656 365.148438 268.75 365.328125 270.042969 L 369.375 299.132812 C 369.554688 300.425781 368.652344 301.621094 367.355469 301.800781 Z M 367.355469 301.800781 "/>
<path style=" stroke:none;fill-rule:nonzero;fill:rgb(48.627451%,22.745098%,92.941176%);fill-opacity:1;" d="M 355.667969 341.410156 L 335.519531 337.183594 C 334.238281 336.914062 333.421875 335.660156 333.6875 334.382812 L 337.917969 314.230469 C 338.183594 312.953125 339.4375 312.132812 340.71875 312.402344 L 360.867188 316.628906 C 362.148438 316.898438 362.964844 318.152344 362.699219 319.429688 L 358.46875 339.578125 C 358.199219 340.859375 356.945312 341.679688 355.667969 341.410156 Z M 355.667969 341.410156 "/>
<path style=" stroke:none;fill-rule:nonzero;fill:rgb(100%,100%,100%);fill-opacity:1;" d="M 349.339844 299.363281 C 350.207031 299.242188 350.8125 298.441406 350.691406 297.574219 L 347.875 277.324219 C 347.753906 276.457031 346.953125 275.851562 346.085938 275.972656 C 345.214844 276.09375 344.609375 276.894531 344.730469 277.761719 L 347.546875 298.011719 C 347.667969 298.878906 348.46875 299.484375 349.339844 299.363281 Z M 349.339844 299.363281 "/>
<path style=" stroke:none;fill-rule:nonzero;fill:rgb(100%,100%,100%);fill-opacity:1;" d="M 343.605469 300.160156 C 344.476562 300.039062 345.082031 299.238281 344.960938 298.371094 L 342.839844 283.113281 C 342.71875 282.242188 341.917969 281.636719 341.046875 281.757812 C 340.179688 281.878906 339.574219 282.679688 339.691406 283.550781 L 341.816406 298.808594 C 341.9375 299.675781 342.738281 300.28125 343.605469 300.160156 Z M 343.605469 300.160156 "/>
<path style=" stroke:none;fill-rule:nonzero;fill:rgb(100%,100%,100%);fill-opacity:1;" d="M 360.191406 297.855469 C 361.0625 297.734375 361.667969 296.933594 361.546875 296.0625 L 359.097656 278.457031 C 358.976562 277.589844 358.175781 276.980469 357.308594 277.101562 C 356.4375 277.222656 355.832031 278.023438 355.953125 278.894531 L 358.402344 296.5 C 358.523438 297.371094 359.324219 297.976562 360.191406 297.855469 Z M 360.191406 297.855469 "/>
<path style=" stroke:none;fill-rule:nonzero;fill:rgb(100%,100%,100%);fill-opacity:1;" d="M 354.765625 298.609375 C 355.636719 298.488281 356.242188 297.6875 356.121094 296.816406 L 354.511719 285.246094 C 354.390625 284.378906 353.589844 283.773438 352.71875 283.894531 C 351.851562 284.015625 351.242188 284.816406 351.363281 285.683594 L 352.972656 297.253906 C 353.09375 298.125 353.898438 298.730469 354.765625 298.609375 Z M 354.765625 298.609375 "/>
<path style=" stroke:none;fill-rule:nonzero;fill:rgb(48.627451%,22.745098%,92.941176%);fill-opacity:1;" d="M 278.921875 261.734375 L 256.996094 264.785156 C 255.699219 264.964844 254.507812 264.0625 254.324219 262.769531 L 251.277344 240.84375 C 251.097656 239.550781 252 238.355469 253.292969 238.175781 L 275.21875 235.125 C 276.511719 234.945312 277.707031 235.847656 277.886719 237.140625 L 280.9375 259.066406 C 281.117188 260.359375 280.214844 261.554688 278.921875 261.734375 Z M 278.921875 261.734375 "/>
<path style=" stroke:none;fill-rule:nonzero;fill:rgb(100%,100%,100%);fill-opacity:1;" d="M 278.8125 282.890625 L 273.160156 277.28125 C 272.5625 276.6875 272.46875 275.703125 273.035156 275.070312 C 273.636719 274.398438 274.671875 274.371094 275.304688 275 L 279.796875 279.457031 L 289.113281 268.480469 C 289.691406 267.800781 290.722656 267.734375 291.382812 268.355469 C 291.996094 268.9375 291.992188 269.925781 291.441406 270.570312 L 281.070312 282.792969 C 280.488281 283.476562 279.445312 283.519531 278.8125 282.890625 Z M 278.8125 282.890625 "/>
<path style=" stroke:none;fill-rule:nonzero;fill:rgb(100%,100%,100%);fill-opacity:1;" d="M 200.359375 323.28125 L 194.429688 317.394531 C 193.796875 316.769531 193.699219 315.734375 194.292969 315.070312 C 194.925781 314.363281 196.015625 314.335938 196.679688 314.996094 L 201.394531 319.675781 L 211.175781 308.148438 C 211.785156 307.433594 212.867188 307.367188 213.558594 308.019531 C 214.207031 308.628906 214.199219 309.667969 213.625 310.347656 L 202.730469 323.179688 C 202.121094 323.898438 201.027344 323.945312 200.359375 323.28125 Z M 200.359375 323.28125 "/>
<path style=" stroke:none;fill-rule:nonzero;fill:rgb(100%,100%,100%);fill-opacity:1;" d="M 133.730469 237.074219 L 138.648438 241.828125 L 143.402344 236.90625 C 143.886719 236.40625 144.683594 236.394531 145.183594 236.878906 C 145.683594 237.359375 145.695312 238.15625 145.214844 238.65625 L 140.460938 243.578125 L 145.378906 248.332031 C 145.878906 248.8125 145.890625 249.609375 145.410156 250.109375 C 144.925781 250.609375 144.128906 250.625 143.628906 250.140625 L 138.710938 245.386719 L 133.957031 250.304688 C 133.472656 250.804688 132.675781 250.820312 132.175781 250.335938 C 131.675781 249.851562 131.660156 249.054688 132.144531 248.554688 L 136.898438 243.636719 L 131.980469 238.882812 C 131.480469 238.398438 131.46875 237.601562 131.949219 237.101562 C 132.433594 236.601562 133.230469 236.589844 133.730469 237.074219 Z M 133.730469 237.074219 "/>
<path style=" stroke:none;fill-rule:nonzero;fill:rgb(100%,100%,100%);fill-opacity:1;" d="M 358.832031 241.722656 L 364.496094 245.558594 L 368.332031 239.890625 C 368.722656 239.316406 369.503906 239.164062 370.078125 239.554688 C 370.65625 239.945312 370.804688 240.726562 370.414062 241.300781 L 366.582031 246.96875 L 372.25 250.800781 C 372.824219 251.191406 372.976562 251.972656 372.585938 252.550781 C 372.195312 253.125 371.414062 253.277344 370.839844 252.886719 L 365.171875 249.054688 L 361.339844 254.71875 C 360.949219 255.296875 360.167969 255.445312 359.589844 255.054688 C 359.015625 254.664062 358.863281 253.882812 359.253906 253.308594 L 363.085938 247.640625 L 357.421875 243.808594 C 356.84375 243.417969 356.695312 242.636719 357.085938 242.0625 C 357.472656 241.484375 358.257812 241.335938 358.832031 241.722656 Z M 358.832031 241.722656 "/>
<path style="fill:none;stroke-width:1;stroke-linecap:round;stroke-linejoin:miter;stroke:rgb(88.235294%,92.54902%,98.039216%);stroke-opacity:1;stroke-miterlimit:10;" d="M 170.964844 189.105469 L 170.964844 339.925781 "/>
<path style=" stroke:none;fill-rule:nonzero;fill:rgb(95.294118%,83.921569%,75.686275%);fill-opacity:1;" d="M 164.175781 398.824219 L 163.980469 405.152344 L 155.820312 405.113281 L 155.851562 398.785156 Z M 164.175781 398.824219 "/>
<path style=" stroke:none;fill-rule:nonzero;fill:rgb(18.431373%,32.156863%,43.137255%);fill-opacity:1;" d="M 155.820312 405.113281 L 163.800781 405.152344 C 163.921875 405.152344 164.035156 405.164062 164.15625 405.195312 C 165.292969 405.46875 171.78125 407.101562 177.492188 410.261719 C 178.914062 411.046875 178.332031 413.21875 176.707031 413.210938 L 157.355469 413.113281 C 156.484375 413.109375 155.78125 412.402344 155.785156 411.53125 Z M 155.820312 405.113281 "/>
<path style=" stroke:none;fill-rule:nonzero;fill:rgb(95.294118%,83.921569%,75.686275%);fill-opacity:1;" d="M 121.128906 393.261719 L 117.203125 398.828125 L 110.4375 394.265625 L 113.976562 389.019531 Z M 121.128906 393.261719 "/>
<path style=" stroke:none;fill-rule:nonzero;fill:rgb(19.215686%,34.117647%,50.196078%);fill-opacity:1;" d="M 110.4375 394.265625 L 117.054688 398.730469 C 117.15625 398.796875 117.242188 398.871094 117.324219 398.960938 C 118.121094 399.820312 122.609375 404.78125 125.605469 410.582031 C 126.351562 412.023438 124.664062 413.503906 123.316406 412.597656 L 107.273438 401.777344 C 106.550781 401.289062 106.363281 400.3125 106.847656 399.589844 Z M 110.4375 394.265625 "/>
<path style=" stroke:none;fill-rule:nonzero;fill:rgb(94.117647%,77.647059%,42.352941%);fill-opacity:1;" d="M 134.621094 320.894531 C 133.277344 320.710938 132.0625 321.699219 131.976562 323.050781 C 131.511719 330.527344 129.90625 352.566406 126.777344 358.878906 L 112.03125 385.785156 C 111.433594 386.871094 111.792969 388.230469 112.84375 388.882812 L 121.71875 394.398438 C 122.796875 395.070312 124.214844 394.75 124.902344 393.683594 L 142.34375 366.652344 C 142.503906 366.402344 142.617188 366.121094 142.675781 365.828125 L 150.367188 325.542969 C 150.617188 324.234375 149.71875 322.980469 148.398438 322.800781 Z M 134.621094 320.894531 "/>
<path style=" stroke:none;fill-rule:nonzero;fill:rgb(94.117647%,77.647059%,42.352941%);fill-opacity:1;" d="M 159.507812 322.035156 L 167.230469 397.597656 C 167.390625 399.152344 166.167969 400.507812 164.601562 400.507812 L 154.773438 400.507812 C 153.417969 400.507812 152.28125 399.480469 152.144531 398.132812 L 146.609375 343.417969 C 146.601562 343.328125 146.597656 343.242188 146.597656 343.152344 L 146.597656 321.488281 C 146.597656 319.917969 147.957031 318.695312 149.519531 318.863281 L 157.15625 319.675781 C 158.398438 319.808594 159.378906 320.792969 159.507812 322.035156 Z M 159.507812 322.035156 "/>
<path style="fill:none;stroke-width:0.5;stroke-linecap:round;stroke-linejoin:miter;stroke:rgb(90.196078%,59.215686%,14.117647%);stroke-opacity:1;stroke-miterlimit:10;" d="M 146.730469 344.59375 L 148.921875 323.960938 "/>
<path style="fill:none;stroke-width:0.5;stroke-linecap:round;stroke-linejoin:miter;stroke:rgb(90.196078%,59.215686%,14.117647%);stroke-opacity:1;stroke-miterlimit:10;" d="M 147.695312 335.503906 L 150.328125 334.6875 C 151.109375 334.445312 151.644531 333.71875 151.644531 332.898438 L 151.644531 323.554688 "/>
<path style="fill:none;stroke-width:0.5;stroke-linecap:round;stroke-linejoin:miter;stroke:rgb(90.196078%,59.215686%,14.117647%);stroke-opacity:1;stroke-miterlimit:10;" d="M 114.785156 386.476562 L 122.210938 391.238281 "/>
<path style="fill:none;stroke-width:0.5;stroke-linecap:round;stroke-linejoin:miter;stroke:rgb(90.196078%,59.215686%,14.117647%);stroke-opacity:1;stroke-miterlimit:10;" d="M 155.820312 397.222656 L 164.644531 397.222656 "/>
<path style="fill:none;stroke-width:0.5;stroke-linecap:round;stroke-linejoin:miter;stroke:rgb(90.196078%,59.215686%,14.117647%);stroke-opacity:1;stroke-miterlimit:10;" d="M 134.597656 325.945312 L 131.941406 356.476562 L 116.183594 384.472656 "/>
<path style="fill:none;stroke-width:0.5;stroke-linecap:round;stroke-linejoin:miter;stroke:rgb(90.196078%,59.215686%,14.117647%);stroke-opacity:1;stroke-miterlimit:10;" d="M 149.671875 340.636719 L 154.996094 394.265625 "/>
<path style=" stroke:none;fill-rule:nonzero;fill:rgb(90.980392%,74.901961%,64.705882%);fill-opacity:1;" d="M 164.621094 275.394531 L 171.503906 275.511719 L 181.566406 254.785156 C 181.566406 254.785156 178.5625 252.792969 177.769531 250.347656 C 176.980469 247.90625 177.433594 247.152344 178.082031 247.289062 C 178.730469 247.429688 180.0625 250.167969 181.304688 250.183594 C 182.546875 250.199219 182.6875 249.421875 182.28125 245.765625 C 181.875 242.113281 181.664062 240.445312 182.609375 239.917969 C 183.554688 239.390625 184.546875 241.609375 184.546875 241.609375 C 184.546875 241.609375 185.175781 240.746094 186.050781 240.824219 C 186.929688 240.902344 187.097656 241.898438 187.097656 241.898438 C 187.097656 241.898438 187.542969 241.40625 188.535156 241.613281 C 189.523438 241.824219 189.59375 243.027344 189.59375 243.027344 C 189.59375 243.027344 190.546875 241.917969 191.453125 243.6875 C 192.359375 245.457031 194.441406 251.625 187.914062 256.695312 C 187.914062 256.695312 181.285156 285.980469 178.570312 287.339844 C 175.851562 288.699219 166.691406 290.023438 166.691406 290.023438 Z M 164.621094 275.394531 "/>
<path style=" stroke:none;fill-rule:nonzero;fill:rgb(18.039216%,31.372549%,43.137255%);fill-opacity:1;" d="M 151.214844 275.714844 L 166.53125 274.851562 C 167.152344 274.816406 167.6875 275.265625 167.757812 275.882812 C 167.980469 277.9375 168.410156 282.441406 168.28125 285.503906 C 168.257812 286.070312 167.832031 286.53125 167.273438 286.605469 L 166.402344 286.722656 C 165.96875 286.78125 165.660156 286.703125 165.414062 286.515625 Z M 151.214844 275.714844 "/>
<path style=" stroke:none;fill-rule:nonzero;fill:rgb(95.294118%,83.921569%,75.686275%);fill-opacity:1;" d="M 155.941406 244.417969 C 155.941406 244.417969 156.179688 247.003906 158.941406 252.496094 C 161.761719 258.105469 160.859375 266.414062 156.507812 268.042969 C 153.121094 269.308594 150.695312 268.566406 150.695312 268.566406 L 148.269531 280.464844 L 137.765625 277.359375 L 139.289062 265.652344 L 137.125 248.664062 Z M 155.941406 244.417969 "/>
<path style=" stroke:none;fill-rule:nonzero;fill:rgb(18.431373%,32.941176%,50.980392%);fill-opacity:1;" d="M 138.855469 267.03125 L 142.082031 263.507812 C 142.460938 263.097656 142.386719 262.453125 141.925781 262.136719 C 140.808594 261.367188 139.085938 259.828125 139.304688 257.804688 C 139.632812 254.839844 142.941406 253.90625 145.183594 256.539062 C 145.183594 256.539062 145.601562 258.207031 146.761719 251.964844 C 147.921875 245.71875 152.941406 250.699219 155.628906 248.257812 C 158.3125 245.816406 160.066406 244.441406 159.71875 241.953125 C 159.371094 239.464844 158.035156 235.847656 154.71875 237.738281 C 151.402344 239.625 151.484375 235.46875 147.898438 236.988281 C 143.429688 238.886719 139.03125 233.980469 138.148438 239.261719 C 137.269531 244.539062 131.335938 240.464844 132.71875 244.890625 C 134.101562 249.3125 127.335938 248.808594 128.714844 251.964844 C 130.09375 255.117188 127.703125 258.761719 130.46875 260.449219 C 133.230469 262.136719 135.578125 260.835938 135.578125 264.84375 C 135.578125 267.179688 138.855469 267.03125 138.855469 267.03125 Z M 138.855469 267.03125 "/>
<path style=" stroke:none;fill-rule:nonzero;fill:rgb(48.627451%,22.745098%,92.941176%);fill-opacity:1;" d="M 206.3125 261.542969 L 178.351562 265.429688 C 177.058594 265.609375 175.863281 264.707031 175.683594 263.414062 L 171.796875 235.453125 C 171.613281 234.160156 172.519531 232.964844 173.8125 232.785156 L 201.773438 228.894531 C 203.066406 228.714844 204.261719 229.617188 204.441406 230.914062 L 208.328125 258.871094 C 208.511719 260.167969 207.605469 261.363281 206.3125 261.542969 Z M 206.3125 261.542969 "/>
<path style=" stroke:none;fill-rule:nonzero;fill:rgb(100%,100%,100%);fill-opacity:1;" d="M 182.460938 256.773438 L 199.996094 254.335938 C 200.765625 254.230469 201.300781 253.519531 201.195312 252.75 C 201.089844 251.980469 200.378906 251.445312 199.609375 251.554688 L 182.074219 253.992188 C 181.308594 254.097656 180.769531 254.808594 180.878906 255.578125 C 180.984375 256.34375 181.691406 256.882812 182.460938 256.773438 Z M 182.460938 256.773438 "/>
<path style=" stroke:none;fill-rule:nonzero;fill:rgb(95.294118%,83.921569%,75.686275%);fill-opacity:1;" d="M 165.382812 283.796875 L 171.980469 285.753906 L 187.234375 268.488281 C 187.234375 268.488281 184.878906 265.761719 184.769531 263.195312 C 184.664062 260.632812 185.304688 260.027344 185.890625 260.335938 C 186.480469 260.640625 187.027344 263.636719 188.21875 263.984375 C 189.410156 264.335938 189.757812 263.625 190.347656 259.992188 C 190.933594 256.363281 191.179688 254.699219 192.230469 254.449219 C 193.28125 254.195312 193.644531 256.597656 193.644531 256.597656 C 193.644531 256.597656 194.480469 255.9375 195.304688 256.246094 C 196.128906 256.554688 196.023438 257.5625 196.023438 257.5625 C 196.023438 257.5625 196.585938 257.207031 197.484375 257.671875 C 198.382812 258.136719 198.125 259.316406 198.125 259.316406 C 198.125 259.316406 199.339844 258.503906 199.742188 260.449219 C 200.140625 262.398438 200.488281 268.898438 192.839844 272.03125 C 192.839844 272.03125 178.597656 298.46875 175.617188 299.046875 C 172.636719 299.625 163.453125 298.445312 163.453125 298.445312 Z M 165.382812 283.796875 "/>
<path style=" stroke:none;fill-rule:nonzero;fill:rgb(19.215686%,34.117647%,50.196078%);fill-opacity:1;" d="M 132.519531 323.960938 C 131.566406 323.960938 130.800781 323.199219 130.800781 322.25 C 130.800781 315.339844 130.867188 289.46875 131.75 281.203125 C 132.871094 270.691406 141.929688 270.960938 154.515625 277.199219 L 166.085938 282.9375 C 166.703125 283.242188 167.082031 283.882812 167.039062 284.574219 C 166.871094 287.386719 166.34375 294.730469 165.289062 298.4375 C 165.039062 299.320312 164.140625 299.851562 163.246094 299.640625 C 161.835938 299.3125 159.910156 298.859375 159.910156 298.859375 L 160.535156 322.195312 C 160.5625 323.164062 159.785156 323.960938 158.816406 323.960938 Z M 132.519531 323.960938 "/>
<path style="fill:none;stroke-width:0.5;stroke-linecap:round;stroke-linejoin:miter;stroke:rgb(18.039216%,31.372549%,43.137255%);stroke-opacity:1;stroke-miterlimit:10;" d="M 159.910156 298.859375 C 159.910156 298.859375 142.53125 292.394531 142.949219 284.132812 "/>
<path style="fill:none;stroke-width:0.5;stroke-linecap:round;stroke-linejoin:miter;stroke:rgb(18.039216%,31.372549%,43.137255%);stroke-opacity:1;stroke-miterlimit:10;" d="M 152.574219 276.273438 C 152.574219 276.273438 144.699219 273.863281 143.589844 280.796875 "/>
<path style="fill:none;stroke-width:0.5;stroke-linecap:round;stroke-linejoin:miter;stroke:rgb(18.039216%,31.372549%,43.137255%);stroke-opacity:1;stroke-miterlimit:10;" d="M 164.621094 284.132812 L 162.921875 297.089844 "/>
<path style="fill:none;stroke-width:0.5;stroke-linecap:round;stroke-linejoin:miter;stroke:rgb(18.039216%,31.372549%,43.137255%);stroke-opacity:1;stroke-miterlimit:10;" d="M 162.304688 291.496094 L 161.5625 297.089844 "/>
<path style="fill:none;stroke-width:0.5;stroke-linecap:round;stroke-linejoin:miter;stroke:rgb(18.039216%,31.372549%,43.137255%);stroke-opacity:1;stroke-miterlimit:10;" d="M 157.4375 320.894531 L 134.597656 320.894531 "/>
<path style=" stroke:none;fill-rule:nonzero;fill:rgb(100%,100%,100%);fill-opacity:1;" d="M 180.515625 242.773438 L 198.050781 240.335938 C 198.816406 240.226562 199.355469 239.519531 199.246094 238.75 C 199.140625 237.980469 198.429688 237.445312 197.660156 237.550781 L 180.128906 239.988281 C 179.359375 240.097656 178.820312 240.808594 178.929688 241.574219 C 179.035156 242.34375 179.746094 242.882812 180.515625 242.773438 Z M 180.515625 242.773438 "/>
<path style=" stroke:none;fill-rule:nonzero;fill:rgb(100%,100%,100%);fill-opacity:1;" d="M 181.4375 249.410156 L 198.972656 246.96875 C 199.742188 246.863281 200.277344 246.152344 200.171875 245.386719 C 200.0625 244.617188 199.351562 244.078125 198.585938 244.1875 L 181.050781 246.625 C 180.28125 246.734375 179.746094 247.441406 179.851562 248.210938 C 179.960938 248.980469 180.667969 249.515625 181.4375 249.410156 Z M 181.4375 249.410156 "/>
<path style=" stroke:none;fill-rule:nonzero;fill:rgb(90.196078%,68.235294%,56.470588%);fill-opacity:1;" d="M 345.367188 337.710938 L 346.992188 352.019531 L 334.464844 358.617188 L 324.398438 347.054688 L 328.527344 336.804688 Z M 345.367188 337.710938 "/>
<path style=" stroke:none;fill-rule:nonzero;fill:rgb(95.294118%,83.921569%,75.686275%);fill-opacity:1;" d="M 312.199219 361.179688 L 308.5625 382.320312 L 316.621094 386.15625 L 322.511719 361.179688 Z M 312.199219 361.179688 "/>
<path style=" stroke:none;fill-rule:nonzero;fill:rgb(95.294118%,83.921569%,75.686275%);fill-opacity:1;" d="M 362.953125 361.902344 L 365.765625 379.144531 L 359.453125 386.082031 L 351.050781 360.492188 Z M 362.953125 361.902344 "/>
<path style=" stroke:none;fill-rule:nonzero;fill:rgb(94.117647%,77.647059%,42.352941%);fill-opacity:1;" d="M 344.390625 344.652344 C 344.390625 344.652344 359.3125 340.816406 361.613281 351.867188 L 363.542969 361.125 C 363.632812 361.550781 363.28125 361.941406 362.851562 361.894531 C 361.023438 361.695312 356.855469 361.464844 355.382812 363.253906 L 359.453125 386.082031 L 352.304688 395.253906 L 314.824219 391.070312 L 320.476562 364.964844 C 320.476562 364.964844 315.972656 362.394531 312.207031 362.601562 C 311.34375 362.648438 310.652344 361.90625 310.796875 361.050781 C 311.65625 355.828125 315.289062 341.726562 328.964844 346.484375 C 328.964844 346.484375 329.558594 355.839844 337.601562 354.75 C 345.871094 353.628906 344.390625 344.652344 344.390625 344.652344 Z M 344.390625 344.652344 "/>
<path style=" stroke:none;fill-rule:nonzero;fill:rgb(18.039216%,31.372549%,43.137255%);fill-opacity:1;" d="M 319.90625 394.375 C 319.90625 394.375 325.722656 391.339844 332.800781 391.46875 C 339.882812 391.59375 344.433594 393.742188 349.617188 390.707031 C 354.800781 387.675781 359.789062 384.0625 362.953125 381.785156 C 366.113281 379.511719 370.730469 376.421875 375.40625 379.835938 C 380.085938 383.246094 377.558594 396.648438 369.464844 399.558594 C 361.375 402.464844 347.089844 407.773438 336.46875 407.015625 C 325.847656 406.257812 319.90625 394.375 319.90625 394.375 Z M 319.90625 394.375 "/>
<path style=" stroke:none;fill-rule:nonzero;fill:rgb(95.294118%,83.921569%,75.686275%);fill-opacity:1;" d="M 343.550781 402.71875 L 350.277344 405.570312 C 350.277344 405.570312 350.503906 409.546875 350.882812 410.9375 C 351.261719 412.328125 350.882812 413.210938 350.882812 413.210938 C 350.882812 413.210938 340.710938 412.894531 337.769531 409.195312 Z M 343.550781 402.71875 "/>
<path style=" stroke:none;fill-rule:nonzero;fill:rgb(90.196078%,59.215686%,14.117647%);fill-opacity:1;" d="M 350.882812 413.214844 C 350.882812 413.214844 369.085938 413.214844 373.257812 409.546875 C 377.429688 405.882812 376.039062 402.214844 369.464844 399.558594 C 369.464844 399.558594 356.726562 404.402344 350.277344 405.570312 Z M 350.882812 413.214844 "/>
<path style=" stroke:none;fill-rule:nonzero;fill:rgb(90.196078%,59.215686%,14.117647%);fill-opacity:1;" d="M 315.230469 400.191406 C 315.230469 400.191406 307.390625 395.511719 304.484375 402.46875 C 301.574219 409.421875 312.320312 412.707031 319.90625 412.074219 C 327.492188 411.441406 333.941406 408.660156 333.941406 408.660156 Z M 315.230469 400.191406 "/>
<path style=" stroke:none;fill-rule:nonzero;fill:rgb(95.294118%,83.921569%,75.686275%);fill-opacity:1;" d="M 345.367188 329.578125 C 345.367188 329.578125 346.542969 340.832031 341.355469 346.019531 C 339.53125 347.839844 336.742188 348.296875 334.351562 347.332031 C 330.789062 345.894531 326 341.757812 326.789062 329.886719 L 333.769531 319.929688 C 333.769531 319.929688 344.445312 329.988281 345.367188 329.578125 Z M 345.367188 329.578125 "/>
<path style=" stroke:none;fill-rule:nonzero;fill:rgb(19.215686%,34.117647%,50.196078%);fill-opacity:1;" d="M 343.550781 402.71875 C 343.550781 402.71875 322.5625 390.398438 317.886719 386.605469 C 313.207031 382.8125 303.976562 376.335938 298.542969 381.5625 C 293.105469 386.789062 297.085938 393.296875 302.460938 396.144531 C 307.632812 398.882812 322.609375 406.988281 334.765625 410.53125 C 335.652344 410.789062 336.605469 410.5 337.21875 409.8125 Z M 343.550781 402.71875 "/>
<path style=" stroke:none;fill-rule:nonzero;fill:rgb(18.039216%,31.372549%,43.137255%);fill-opacity:1;" d="M 334.628906 323.613281 C 336.070312 325.652344 339.351562 329.835938 342.414062 330.589844 C 343.015625 330.738281 343.421875 331.296875 343.429688 331.914062 C 343.5 336.347656 343.90625 351.664062 346.25 355.300781 C 348.996094 359.5625 354.261719 355.5625 357.53125 352.726562 C 360.800781 349.894531 352.054688 334.0625 352.054688 327.257812 C 352.054688 320.457031 345.585938 310.253906 335.300781 311.332031 C 325.011719 312.410156 322.773438 319.628906 321.695312 327.589844 C 320.617188 335.554688 315.636719 335.722656 315.554688 342.9375 C 315.472656 350.15625 314.636719 353.0625 318.371094 355.21875 C 322.105469 357.375 327.335938 358.863281 328.332031 353.390625 C 329.324219 347.914062 329.824219 343.851562 328.664062 338.210938 C 327.742188 333.746094 331.539062 326.511719 333.164062 323.683594 C 333.480469 323.128906 334.261719 323.09375 334.628906 323.613281 Z M 334.628906 323.613281 "/>
<path style=" stroke:none;fill-rule:nonzero;fill:rgb(90.196078%,59.215686%,14.117647%);fill-opacity:1;" d="M 359.453125 363.515625 L 358.816406 384.40625 C 358.777344 385.632812 357.777344 386.605469 356.550781 386.605469 L 317.886719 386.605469 C 316.667969 386.605469 315.667969 385.640625 315.621094 384.425781 L 314.824219 363.882812 C 314.777344 362.605469 315.792969 361.539062 317.070312 361.53125 L 357.167969 361.179688 C 358.453125 361.167969 359.492188 362.230469 359.453125 363.515625 Z M 359.453125 363.515625 "/>
<path style=" stroke:none;fill-rule:nonzero;fill:rgb(94.117647%,77.647059%,42.352941%);fill-opacity:1;" d="M 334.164062 374.484375 C 334.164062 376.71875 335.976562 378.527344 338.210938 378.527344 C 340.441406 378.527344 342.253906 376.71875 342.253906 374.484375 C 342.253906 372.25 340.441406 370.4375 338.210938 370.4375 C 335.976562 370.4375 334.164062 372.25 334.164062 374.484375 Z M 334.164062 374.484375 "/>
<path style="fill:none;stroke-width:1;stroke-linecap:round;stroke-linejoin:miter;stroke:rgb(19.215686%,34.117647%,50.980392%);stroke-opacity:1;stroke-miterlimit:10;" d="M 86.191406 412.671875 L 418.015625 412.671875 "/>
<path style=" stroke:none;fill-rule:nonzero;fill:rgb(72.941176%,83.137255%,93.72549%);fill-opacity:1;" d="M 355.332031 144.726562 L 341.890625 155.847656 C 340.371094 157.105469 338.070312 156.558594 337.28125 154.75 L 320.203125 115.613281 Z M 355.332031 144.726562 "/>
<path style=" stroke:none;fill-rule:nonzero;fill:rgb(72.941176%,83.137255%,93.72549%);fill-opacity:1;" d="M 360.113281 141.023438 L 320.203125 115.613281 L 371.164062 131.226562 C 372.207031 131.542969 372.40625 132.929688 371.496094 133.527344 Z M 360.113281 141.023438 "/>
<path style=" stroke:none;fill-rule:nonzero;fill:rgb(19.215686%,34.117647%,50.980392%);fill-opacity:1;" d="M 355.332031 144.726562 L 359.425781 154.152344 L 360.113281 141.023438 L 320.203125 115.613281 Z M 355.332031 144.726562 "/>
<path style=" stroke:none;fill-rule:nonzero;fill:rgb(18.039216%,31.372549%,43.137255%);fill-opacity:1;" d="M 351.789062 147.660156 L 359.425781 154.152344 L 355.332031 144.726562 Z M 351.789062 147.660156 "/>
<path style="fill:none;stroke-width:1;stroke-linecap:round;stroke-linejoin:miter;stroke:rgb(19.215686%,34.117647%,50.980392%);stroke-opacity:1;stroke-miterlimit:10;" d="M 364.734375 156.011719 C 364.734375 156.011719 365.566406 156.4375 366.980469 157.105469 "/>
<path style="fill:none;stroke-width:1;stroke-linecap:round;stroke-linejoin:miter;stroke:rgb(19.215686%,34.117647%,50.980392%);stroke-opacity:1;stroke-dasharray:5.0554,5.0554;stroke-miterlimit:10;" d="M 371.578125 159.203125 C 380.464844 163.097656 395.285156 168.648438 399.015625 164.269531 C 404.441406 157.898438 392.953125 151.058594 390.875 158.257812 C 388.792969 165.457031 421.945312 166.023438 413.59375 181.054688 C 409.148438 189.050781 398.261719 170.082031 416.1875 174.621094 C 426.589844 177.257812 425.0625 192.75 418.914062 201.730469 C 416.6875 204.984375 413.421875 206.875 410.714844 207.953125 "/>
<path style="fill:none;stroke-width:1;stroke-linecap:round;stroke-linejoin:miter;stroke:rgb(19.215686%,34.117647%,50.980392%);stroke-opacity:1;stroke-miterlimit:10;" d="M 408.320312 208.761719 C 406.855469 209.171875 405.878906 209.292969 405.878906 209.292969 "/>
</g>
</svg>
